<?xml version="1.0" standalone="no"?>
<!DOCTYPE svg PUBLIC "-//W3C//DTD SVG 20010904//EN"
 "http://www.w3.org/TR/2001/REC-SVG-20010904/DTD/svg10.dtd">
<svg version="1.0" xmlns="http://www.w3.org/2000/svg"
 width="140.000000pt" height="140.000000pt" viewBox="0 0 140.000000 140.000000"
 preserveAspectRatio="xMidYMid meet">

<g transform="translate(0.000000,140.000000) scale(0.100000,-0.100000)"
fill="#fefefe" stroke="none">
<path d="M545 1261 c-156 -45 -291 -156 -363 -299 -52 -105 -66 -171 -60 -297
8 -159 72 -293 189 -399 50 -45 185 -119 242 -132 l27 -6 0 201 0 201 -55 0
-55 0 0 85 0 85 55 0 55 0 0 76 c0 98 15 153 53 199 46 57 95 75 205 75 l92 0
0 -84 0 -84 -71 -4 c-89 -5 -99 -16 -99 -110 l0 -68 85 0 85 0 0 -85 0 -85
-85 0 -85 0 0 -206 0 -206 43 7 c218 37 406 214 463 436 24 95 15 252 -20 343
-67 174 -222 314 -402 361 -77 20 -222 18 -299 -4z"/>
</g>
</svg>
