<?xml version="1.0" standalone="no"?>
<!DOCTYPE svg PUBLIC "-//W3C//DTD SVG 20010904//EN"
 "http://www.w3.org/TR/2001/REC-SVG-20010904/DTD/svg10.dtd">
<svg version="1.0" xmlns="http://www.w3.org/2000/svg"
 width="271.000000pt" height="260.000000pt" viewBox="0 0 271.000000 260.000000"
 preserveAspectRatio="xMidYMid meet">

<g transform="translate(0.000000,260.000000) scale(0.100000,-0.100000)"
fill="#fefefe" stroke="none">
<path d="M1347 2593 c-4 -3 -7 -25 -7 -47 l0 -41 -150 -99 c-134 -88 -150
-102 -150 -127 0 -15 7 -32 15 -37 13 -7 15 -32 13 -158 l-3 -149 -28 -1 c-41
-2 -56 -29 -57 -104 0 -74 5 -85 43 -99 22 -9 27 -17 27 -44 0 -98 -33 -631
-51 -822 -11 -121 -29 -307 -39 -413 -10 -106 -19 -194 -21 -195 -2 -2 -21
-10 -42 -20 -42 -19 -74 -65 -83 -120 -7 -41 -15 -45 -98 -49 -56 -3 -79 -25
-57 -52 12 -14 86 -16 707 -16 646 0 694 1 703 17 18 34 -4 53 -62 53 -62 0
-82 13 -91 58 -9 49 -43 92 -91 113 l-42 19 -7 107 c-12 183 -35 522 -46 658
-14 175 -40 600 -40 653 0 28 4 42 13 42 30 0 50 39 50 98 0 68 -14 99 -49
108 l-26 7 4 182 c2 140 0 186 -10 198 -7 9 -74 55 -148 104 -125 82 -134 90
-134 120 0 53 -20 79 -43 56z m253 -508 l0 -155 -55 0 -55 0 0 113 c0 75 -4
117 -12 125 -13 13 -173 17 -202 6 -13 -5 -16 -26 -16 -125 l0 -119 -60 0 -60
0 0 155 0 155 230 0 230 0 0 -155z m-190 -70 l0 -85 -40 0 -40 0 0 85 0 85 40
0 40 0 0 -85z m270 -185 l0 -30 -315 0 -315 0 0 23 c0 13 3 27 7 30 3 4 145 7
315 7 l308 0 0 -30z m-66 -132 c3 -13 6 -60 6 -105 0 -69 -3 -82 -17 -87 -30
-8 -459 -86 -477 -86 -15 0 -16 12 -11 128 3 70 8 137 11 150 l4 22 239 0 239
0 6 -22z m20 -375 c10 -149 57 -800 72 -990 l6 -73 -346 0 -346 0 0 28 c0 15
14 162 30 327 17 165 35 381 41 480 6 99 12 194 15 211 l5 32 122 22 c67 13
174 33 237 46 173 34 156 42 164 -83z m167 -1153 c10 -6 28 -28 38 -49 l20
-38 -97 -6 c-53 -4 -274 -7 -489 -7 l-393 0 0 26 c0 15 12 38 29 55 l29 29
422 0 c271 0 428 -4 441 -10z"/>
<path d="M1108 854 c-5 -4 -8 -85 -8 -180 l0 -172 63 -7 c68 -7 140 6 169 32
44 40 42 119 -4 154 -20 15 -20 18 -4 40 23 33 20 73 -8 106 -23 26 -30 28
-113 31 -48 2 -91 0 -95 -4z m136 -60 c19 -7 21 -45 4 -62 -7 -7 -25 -12 -40
-12 -26 0 -28 3 -28 40 0 36 3 40 24 40 13 0 31 -3 40 -6z m32 -159 c15 -23
15 -27 0 -50 -13 -20 -25 -25 -56 -25 l-40 0 0 50 0 50 40 0 c31 0 43 -5 56
-25z"/>
<path d="M1430 680 l0 -180 115 0 115 0 0 30 0 30 -75 0 -75 0 0 150 0 150
-40 0 -40 0 0 -180z"/>
<path d="M2640 2252 c-36 -7 -247 -49 -469 -92 -362 -71 -436 -89 -420 -104 8
-9 949 -199 955 -193 2 2 3 94 2 203 l-3 199 -65 -13z"/>
<path d="M20 2060 c0 -153 3 -200 13 -200 6 0 154 30 327 66 173 36 374 76
445 90 180 35 175 33 175 44 0 6 -10 15 -22 20 -20 8 -906 180 -929 180 -5 0
-9 -90 -9 -200z"/>
<path d="M20 680 l0 -180 40 0 40 0 0 75 0 75 65 0 65 0 0 -75 0 -75 40 0 40
0 0 180 0 180 -40 0 -40 0 0 -70 0 -70 -65 0 -65 0 0 70 0 70 -40 0 -40 0 0
-180z"/>
<path d="M428 698 c-31 -90 -60 -171 -64 -181 -6 -16 -2 -18 36 -15 40 3 44 6
55 38 11 34 13 35 72 38 l60 3 12 -41 c11 -38 14 -40 51 -40 26 0 40 4 39 13
0 6 -26 86 -57 177 l-57 165 -45 3 -46 3 -56 -163z m120 16 c19 -66 17 -74
-23 -74 -19 0 -35 2 -35 5 0 22 35 124 40 118 4 -4 12 -27 18 -49z"/>
<path d="M650 856 c0 -3 86 -255 110 -323 11 -30 16 -33 53 -33 l42 0 58 173
c32 94 58 175 57 180 0 13 -80 8 -80 -5 0 -7 -18 -67 -39 -133 l-38 -120 -42
133 -42 132 -40 0 c-21 0 -39 -2 -39 -4z"/>
<path d="M1820 680 l0 -180 40 0 40 0 0 180 0 180 -40 0 -40 0 0 -180z"/>
<path d="M1980 680 l0 -180 40 0 39 0 3 117 3 118 74 -118 73 -117 44 0 44 0
0 180 0 180 -40 0 -39 0 -3 -120 -3 -120 -75 120 -75 120 -42 0 -43 0 0 -180z"/>
<path d="M2380 681 l0 -181 45 0 45 0 0 75 c0 68 2 75 20 75 13 0 37 -24 72
-75 l52 -75 49 0 49 0 -48 68 c-26 37 -56 77 -65 90 -18 23 -17 25 30 100 26
42 51 83 55 90 5 9 -5 12 -41 12 l-48 0 -43 -75 c-30 -53 -48 -75 -62 -75 -17
0 -19 8 -22 73 l-3 72 -42 3 -43 3 0 -180z"/>
</g>
</svg>
