<?xml version="1.0" standalone="no"?>
<!DOCTYPE svg PUBLIC "-//W3C//DTD SVG 20010904//EN"
 "http://www.w3.org/TR/2001/REC-SVG-20010904/DTD/svg10.dtd">
<svg version="1.0" xmlns="http://www.w3.org/2000/svg"
 width="140.000000pt" height="140.000000pt" viewBox="0 0 140.000000 140.000000"
 preserveAspectRatio="xMidYMid meet">

<g transform="translate(0.000000,140.000000) scale(0.100000,-0.100000)"
fill="#fefefe" stroke="none">
<path d="M337 1257 c-82 -29 -154 -94 -189 -171 -23 -50 -23 -58 -23 -386 0
-325 1 -336 22 -383 33 -71 75 -120 130 -149 83 -45 133 -50 458 -46 285 3
302 4 348 25 71 33 120 75 149 130 45 83 50 133 46 458 -3 288 -4 302 -26 350
-30 65 -102 138 -166 167 -49 22 -61 23 -366 26 -308 2 -316 2 -383 -21z m688
-108 c53 -15 110 -74 126 -129 18 -64 19 -577 0 -640 -17 -58 -74 -114 -131
-131 -64 -18 -577 -19 -640 0 -58 17 -114 74 -131 131 -18 61 -18 577 -1 637
15 50 53 98 96 120 17 9 67 20 111 24 113 11 521 3 570 -12z"/>
<path d="M972 1073 c-7 -3 -19 -18 -28 -35 -13 -24 -13 -35 -4 -58 31 -74 140
-51 140 30 0 45 -63 81 -108 63z"/>
<path d="M607 976 c-90 -33 -165 -113 -188 -200 -26 -97 13 -232 84 -292 64
-54 106 -69 197 -69 68 0 93 5 126 22 63 34 97 66 129 125 27 47 30 63 30 138
0 75 -3 91 -29 138 -31 55 -74 95 -136 127 -46 24 -163 30 -213 11z m184 -129
c55 -37 79 -81 79 -147 0 -66 -24 -110 -79 -147 -47 -32 -135 -32 -182 0 -55
37 -79 81 -79 147 0 66 24 110 79 147 47 32 135 32 182 0z"/>
</g>
</svg>
