<?xml version="1.0" standalone="no"?>
<!DOCTYPE svg PUBLIC "-//W3C//DTD SVG 20010904//EN"
 "http://www.w3.org/TR/2001/REC-SVG-20010904/DTD/svg10.dtd">
<svg version="1.0" xmlns="http://www.w3.org/2000/svg"
 width="200.000000pt" height="200.000000pt" viewBox="0 0 200.000000 200.000000"
 preserveAspectRatio="xMidYMid meet">

<g transform="translate(0.000000,200.000000) scale(0.100000,-0.100000)"
fill="#000000" stroke="none">
<path d="M1047 1490 c-129 -22 -301 -95 -430 -182 -69 -46 -195 -147 -216
-172 -7 -9 -17 -16 -22 -16 -4 0 -36 37 -71 82 -92 119 -102 128 -141 128 -42
0 -80 -38 -80 -79 0 -34 26 -76 114 -180 l60 -71 -60 -71 c-88 -104 -114 -146
-114 -180 0 -56 61 -94 117 -73 9 3 36 34 60 68 25 33 61 79 80 101 l34 40 39
-36 c158 -148 347 -260 528 -315 79 -24 107 -27 230 -28 156 0 244 18 353 73
131 66 298 233 369 369 l28 53 -30 54 c-106 191 -316 370 -485 413 -118 31
-259 39 -363 22z m177 -228 c-54 -160 -54 -347 0 -517 l24 -75 -87 0 c-143 0
-294 54 -460 164 -79 53 -201 153 -201 165 0 27 227 193 341 249 118 58 206
80 315 81 l90 1 -22 -68z m249 2 c55 -28 221 -187 246 -236 20 -39 6 -63 -104
-174 -97 -98 -190 -158 -206 -132 -45 68 -73 299 -50 409 11 53 49 159 57 159
3 0 28 -12 57 -26z"/>
<path d="M963 1197 c-56 -31 -96 -114 -97 -197 -1 -55 4 -73 30 -120 35 -62
81 -95 119 -86 66 17 86 90 40 144 -14 17 -25 43 -25 59 0 16 11 44 25 63 39
54 33 110 -16 135 -34 18 -47 18 -76 2z"/>
</g>
</svg>
