<?xml version="1.0" standalone="no"?>
<!DOCTYPE svg PUBLIC "-//W3C//DTD SVG 20010904//EN"
 "http://www.w3.org/TR/2001/REC-SVG-20010904/DTD/svg10.dtd">
<svg version="1.0" xmlns="http://www.w3.org/2000/svg"
 width="200.000000pt" height="200.000000pt" viewBox="0 0 200.000000 200.000000"
 preserveAspectRatio="xMidYMid meet">

<g transform="translate(0.000000,200.000000) scale(0.100000,-0.100000)"
fill="#000000" stroke="none">
<path d="M859 1735 c-131 -26 -279 -101 -380 -192 -120 -108 -237 -305 -279
-473 -28 -110 -38 -310 -20 -417 24 -155 104 -355 154 -388 20 -14 108 -15
740 -13 l718 3 19 24 c17 21 19 41 19 196 0 95 -3 181 -6 190 -8 19 -55 45
-82 45 -11 0 -31 9 -46 21 -20 16 -26 29 -26 60 0 48 25 75 77 85 21 3 48 16
61 27 21 20 22 27 22 198 0 171 -1 179 -22 202 -18 19 -551 308 -785 426 -48
24 -70 25 -164 6z m305 -267 c116 -61 220 -117 231 -125 16 -11 -53 -13 -433
-13 l-452 0 17 27 c27 40 137 127 206 162 63 31 153 59 196 60 13 1 119 -49
235 -111z m504 -368 l3 -65 -53 -35 c-32 -22 -64 -54 -83 -84 -26 -43 -30 -59
-30 -120 0 -91 36 -161 103 -206 25 -17 49 -30 54 -30 4 0 8 -31 8 -70 l0 -70
-624 0 -624 0 -21 51 c-47 109 -64 196 -64 339 0 137 16 226 57 323 l15 37
628 -2 628 -3 3 -65z"/>
<path d="M617 980 c-33 -26 -41 -63 -22 -101 29 -55 96 -61 135 -12 28 36 25
70 -9 104 -34 34 -68 37 -104 9z"/>
<path d="M1213 990 c-27 -11 -43 -40 -43 -77 1 -36 20 -60 58 -74 79 -27 138
76 77 136 -25 26 -54 30 -92 15z"/>
<path d="M867 730 c-33 -26 -41 -63 -22 -101 29 -55 96 -61 135 -12 28 36 25
70 -9 104 -34 34 -68 37 -104 9z"/>
</g>
</svg>
