<?xml version="1.0" standalone="no"?>
<!DOCTYPE svg PUBLIC "-//W3C//DTD SVG 20010904//EN"
 "http://www.w3.org/TR/2001/REC-SVG-20010904/DTD/svg10.dtd">
<svg version="1.0" xmlns="http://www.w3.org/2000/svg"
 width="200.000000pt" height="200.000000pt" viewBox="0 0 200.000000 200.000000"
 preserveAspectRatio="xMidYMid meet">

<g transform="translate(0.000000,200.000000) scale(0.100000,-0.100000)"
fill="#000000" stroke="none">
<path d="M1521 1794 c-41 -11 -62 -12 -84 -4 -53 18 -147 12 -202 -14 -27 -12
-56 -30 -64 -39 -10 -12 -30 -17 -70 -17 -93 0 -195 -61 -237 -141 -17 -34
-11 -33 -81 -13 -89 26 -211 16 -294 -24 -152 -73 -251 -242 -236 -404 4 -51
3 -58 -13 -58 -9 0 -29 -9 -44 -21 -23 -18 -26 -27 -26 -85 0 -142 54 -308
142 -440 45 -67 188 -214 209 -214 5 0 2 -11 -7 -25 -11 -17 -14 -35 -10 -60
13 -67 1 -65 499 -65 l448 0 24 25 c28 27 31 58 11 98 -8 15 -11 27 -7 27 5 0
41 30 80 66 163 151 254 338 268 549 5 80 3 93 -15 115 l-20 25 27 40 c16 22
33 55 39 74 15 41 16 140 2 175 -7 19 -5 44 6 87 54 210 -138 401 -345 343z
m-111 -174 c22 -11 48 -20 60 -20 11 0 37 9 57 20 45 24 84 25 123 5 58 -30
75 -102 40 -168 -25 -47 -25 -67 1 -117 16 -30 20 -51 16 -77 -6 -35 -50 -93
-71 -93 -19 0 -56 -44 -56 -67 l0 -23 -145 0 c-80 0 -145 3 -145 7 0 4 47 55
105 113 111 113 121 133 89 178 -24 35 -59 45 -97 28 -18 -8 -102 -84 -187
-170 l-155 -156 -58 0 c-96 0 -157 47 -157 121 0 49 39 96 101 118 53 20 71
50 63 106 -4 32 -1 47 18 75 34 51 62 61 136 54 63 -6 64 -6 100 28 67 64 97
71 162 38z m-674 -213 c4 -4 -5 -24 -19 -44 -14 -21 -31 -51 -38 -68 -14 -38
-15 -151 0 -187 l11 -28 -129 0 c-147 0 -141 -4 -141 88 1 115 69 207 180 243
28 9 126 6 136 -4z m924 -506 c0 -35 -42 -155 -78 -226 -74 -143 -244 -275
-412 -321 -99 -27 -255 -25 -350 5 -183 56 -326 171 -407 327 -38 72 -73 178
-73 218 0 15 61 16 660 16 641 0 660 -1 660 -19z"/>
</g>
</svg>
