<?xml version="1.0" standalone="no"?>
<!DOCTYPE svg PUBLIC "-//W3C//DTD SVG 20010904//EN"
 "http://www.w3.org/TR/2001/REC-SVG-20010904/DTD/svg10.dtd">
<svg version="1.0" xmlns="http://www.w3.org/2000/svg"
 width="200.000000pt" height="200.000000pt" viewBox="0 0 200.000000 200.000000"
 preserveAspectRatio="xMidYMid meet">

<g transform="translate(0.000000,200.000000) scale(0.100000,-0.100000)"
fill="#000000" stroke="none">
<path d="M578 1918 c-3 -7 4 -46 14 -87 27 -114 26 -118 -26 -118 -57 -1 -125
-32 -159 -72 -33 -40 -34 -62 -4 -96 38 -44 105 -44 210 0 15 6 17 0 17 -57
l0 -65 -58 0 c-69 0 -148 -37 -175 -83 -22 -37 -21 -52 3 -83 33 -42 103 -46
191 -12 15 5 15 0 6 -44 -8 -42 -13 -51 -31 -51 -11 0 -52 -7 -89 -15 -195
-41 -368 -188 -428 -363 -85 -247 37 -523 284 -641 100 -48 160 -61 279 -61
139 0 246 34 361 116 l48 34 46 -35 c101 -77 221 -115 365 -115 111 0 187 17
287 67 101 49 195 143 245 245 l37 75 -3 159 c-3 153 -4 161 -33 219 -18 37
-58 89 -105 136 -90 91 -184 142 -307 166 -81 16 -82 17 -77 42 14 64 13 63
42 41 34 -24 111 -42 151 -34 41 8 71 39 71 73 0 64 -84 120 -177 121 l-53 0
0 59 0 60 38 -16 c51 -22 132 -22 165 0 41 27 38 80 -8 123 -40 37 -88 54
-157 54 l-48 0 -1 38 c0 20 -10 80 -22 132 -17 74 -26 96 -41 98 -34 7 -37
-12 -16 -104 27 -123 28 -119 -28 -120 -84 -2 -172 -63 -172 -120 0 -51 40
-77 110 -72 30 2 69 11 87 20 17 9 34 13 37 10 8 -7 8 -52 0 -91 -6 -26 -10
-30 -30 -25 -42 11 -124 -16 -165 -54 -95 -85 -3 -177 130 -131 18 6 34 9 37
6 3 -3 2 -25 -3 -48 l-8 -43 -88 -17 c-95 -19 -192 -59 -263 -111 -31 -22 -49
-29 -58 -23 -96 73 -211 123 -320 140 -38 6 -38 7 -33 42 4 19 8 37 10 39 1 2
25 -8 52 -21 85 -43 195 -28 209 30 10 38 -18 80 -71 112 -39 22 -60 28 -111
28 l-64 0 6 44 c3 24 6 52 6 62 0 17 3 17 35 3 46 -19 139 -18 169 2 55 35 36
105 -40 150 -36 21 -60 27 -110 28 l-64 1 -6 35 c-15 95 -37 197 -45 213 -11
19 -45 23 -51 5z m31 -267 c37 -23 -47 -81 -118 -81 -49 0 -60 15 -32 44 37
37 118 57 150 37z m825 -7 c12 -5 13 -10 6 -25 -21 -37 -115 -68 -152 -48 -19
10 -19 11 -1 31 33 38 105 58 147 42z m-614 -56 c53 -27 64 -54 25 -64 -55
-14 -165 37 -152 70 9 24 74 20 127 -6z m813 -1 c18 -8 38 -22 46 -31 13 -15
13 -19 0 -27 -21 -13 -65 -11 -102 5 -39 16 -69 44 -62 57 9 14 81 11 118 -4z
m-1024 -226 c37 -24 -48 -80 -121 -81 -47 0 -56 15 -27 46 34 36 115 55 148
35z m825 3 c22 -8 4 -39 -34 -59 -31 -16 -115 -21 -124 -6 -7 11 32 47 64 60
29 11 71 14 94 5z m207 -60 c14 -7 32 -20 39 -29 12 -14 12 -18 -1 -26 -32
-20 -116 1 -150 37 l-22 24 24 9 c27 10 72 4 110 -15z m-816 -7 c50 -29 57
-53 16 -62 -57 -12 -161 35 -148 69 10 24 83 21 132 -7z m-245 -687 c0 -342
-3 -480 -11 -480 -6 0 -26 7 -45 16 -65 31 -136 142 -170 265 -25 89 -25 300
-1 388 36 133 104 235 182 275 17 9 33 16 38 16 4 0 7 -216 7 -480z m165 415
c86 -89 135 -240 135 -414 0 -125 -17 -213 -58 -303 -42 -92 -125 -178 -172
-178 -7 0 -10 151 -10 479 l0 480 32 -11 c18 -6 50 -30 73 -53z m655 -415 c0
-328 -3 -480 -10 -480 -42 0 -124 79 -164 158 -42 83 -58 153 -47 203 14 58
14 184 0 232 -8 30 -7 50 6 94 19 66 57 144 93 191 22 29 95 82 115 82 4 0 7
-216 7 -480z m109 461 c79 -41 141 -135 178 -271 22 -81 24 -289 4 -370 -31
-123 -99 -239 -165 -279 -70 -44 -66 -74 -66 459 0 264 2 480 5 480 3 0 23 -9
44 -19z m-1129 -69 c-81 -120 -122 -323 -101 -489 15 -115 46 -211 92 -287 20
-33 36 -63 34 -64 -10 -11 -138 71 -188 120 -154 152 -181 388 -67 568 43 67
117 135 190 175 36 19 68 35 72 35 3 0 -11 -26 -32 -58z m548 -9 c148 -98 230
-285 202 -456 -16 -92 -67 -190 -132 -254 -53 -51 -160 -123 -185 -123 -7 0 4
25 27 62 135 208 132 574 -6 779 -19 28 -34 53 -34 54 0 9 79 -30 128 -62z
m278 9 c-19 -28 -42 -71 -51 -96 -10 -26 -20 -46 -24 -46 -3 0 -20 21 -38 47
l-31 46 28 23 c31 27 141 87 147 81 2 -2 -12 -27 -31 -55z m483 29 c71 -37
158 -115 201 -181 147 -229 54 -536 -203 -666 -27 -14 -51 -23 -53 -21 -3 2
11 27 30 55 143 213 133 605 -21 810 -13 17 -21 32 -18 32 3 0 32 -13 64 -29z
m-479 -826 c31 -46 32 -47 9 -40 -28 9 -81 39 -126 72 l-33 24 37 50 36 51 23
-55 c12 -31 36 -77 54 -102z"/>
</g>
</svg>
