<?xml version="1.0" standalone="no"?>
<!DOCTYPE svg PUBLIC "-//W3C//DTD SVG 20010904//EN"
 "http://www.w3.org/TR/2001/REC-SVG-20010904/DTD/svg10.dtd">
<svg version="1.0" xmlns="http://www.w3.org/2000/svg"
 width="200.000000pt" height="200.000000pt" viewBox="0 0 200.000000 200.000000"
 preserveAspectRatio="xMidYMid meet">

<g transform="translate(0.000000,200.000000) scale(0.100000,-0.100000)"
fill="#000000" stroke="none">
<path d="M448 1572 c-187 -187 -198 -200 -198 -235 0 -27 7 -45 25 -62 21 -22
33 -25 95 -25 l70 0 0 -45 c0 -25 -11 -87 -24 -138 -66 -253 -37 -390 112
-537 60 -59 99 -88 169 -122 85 -43 117 -52 271 -74 30 -5 32 -7 32 -44 l0
-40 -105 0 -105 0 0 -40 0 -40 200 0 200 0 0 40 0 40 -55 0 -55 0 0 43 0 43
73 17 c123 28 230 89 322 181 98 99 143 180 180 325 14 57 41 133 60 168 37
71 36 94 -6 126 -24 17 -32 17 -313 -28 -164 -27 -302 -44 -320 -41 -64 12
-90 40 -174 181 l-81 138 49 54 c56 61 63 94 29 137 -18 22 -28 26 -75 26
l-54 0 0 49 c0 68 -27 101 -83 101 -40 0 -46 -5 -239 -198z m242 69 l0 -49
-35 16 -35 16 32 33 c18 18 33 33 35 33 2 0 3 -22 3 -49z m114 -132 l-28 -29
-18 28 c-10 15 -18 29 -18 32 0 3 21 4 46 1 l46 -3 -28 -29z m-155 4 c17 -16
80 -113 141 -218 118 -204 168 -262 237 -283 60 -18 89 -16 357 28 135 22 250
40 256 40 6 0 -1 -22 -14 -48 -14 -27 -34 -87 -46 -133 -34 -135 -56 -183
-114 -237 -128 -121 -297 -153 -447 -86 -154 69 -249 204 -267 377 -5 50 -12
73 -25 81 -49 31 -71 -53 -42 -167 34 -137 118 -257 228 -328 74 -48 141 -70
236 -78 l76 -6 -67 -18 c-205 -53 -431 6 -575 150 -72 72 -97 116 -113 201
-13 74 -7 135 27 262 32 118 33 211 4 294 -12 33 -21 77 -21 98 0 88 104 131
169 71z m-240 -165 c1 -14 -7 -18 -41 -18 l-42 0 34 35 c30 31 35 33 42 18 3
-10 7 -26 7 -35z"/>
<path d="M556 1484 c-19 -19 -20 -25 -3 -48 19 -26 61 -18 65 12 7 44 -32 67
-62 36z"/>
</g>
</svg>
