<?xml version="1.0" standalone="no"?>
<!DOCTYPE svg PUBLIC "-//W3C//DTD SVG 20010904//EN"
 "http://www.w3.org/TR/2001/REC-SVG-20010904/DTD/svg10.dtd">
<svg version="1.0" xmlns="http://www.w3.org/2000/svg"
 width="768.000000pt" height="394.000000pt" viewBox="0 0 768.000000 394.000000"
 preserveAspectRatio="xMidYMid meet">

<g transform="translate(0.000000,394.000000) scale(0.100000,-0.100000)"
fill="#000000" stroke="none">
<path d="M1877 3214 c-478 -80 -876 -447 -1001 -924 -92 -348 -30 -728 165
-1023 22 -32 39 -63 39 -70 0 -6 -56 -110 -125 -232 -129 -228 -138 -256 -92
-269 12 -3 109 -6 215 -6 154 0 200 3 225 15 32 16 42 31 300 489 78 139 80
156 18 221 -71 75 -110 131 -150 215 -60 125 -74 192 -74 345 1 144 18 217 87
353 94 187 287 338 503 392 94 24 250 26 338 5 92 -22 119 -20 148 15 22 25
101 160 199 337 35 63 37 115 6 137 -19 14 -71 16 -373 15 -237 -1 -375 -6
-428 -15z"/>
<path d="M3007 3212 c-10 -10 -37 -54 -60 -98 -24 -43 -96 -172 -160 -285 -80
-141 -117 -216 -117 -237 0 -24 13 -45 59 -94 104 -112 158 -211 193 -358 98
-410 -157 -823 -576 -930 -86 -22 -237 -26 -316 -9 -138 29 -148 27 -195 -46
-19 -31 -35 -57 -35 -59 0 -2 -38 -70 -85 -151 -48 -84 -85 -160 -85 -175 0
-16 11 -36 26 -51 l26 -24 336 0 c302 1 348 3 447 22 610 118 1035 631 1035
1248 0 255 -67 483 -207 698 l-44 69 29 51 c16 29 73 129 126 224 64 112 96
180 94 195 l-3 23 -236 3 c-218 2 -237 1 -252 -16z"/>
<path d="M2120 2448 c-22 -24 -25 -49 -10 -78 26 -48 90 -48 115 1 20 38 19
46 -10 74 -30 31 -68 32 -95 3z"/>
<path d="M3791 2336 c-13 -7 -30 -24 -37 -37 -32 -58 -5 -113 75 -154 80 -40
94 -73 51 -117 -27 -27 -36 -30 -80 -26 -41 2 -50 0 -50 -14 0 -21 47 -32 102
-23 57 10 98 51 98 100 0 62 -20 87 -102 130 -90 47 -70 115 33 115 42 0 49 3
49 20 0 18 -7 20 -57 20 -32 -1 -69 -7 -82 -14z"/>
<path d="M1890 2301 c-19 -11 -51 -35 -69 -55 -26 -27 -43 -36 -67 -36 -47 0
-97 -25 -133 -66 -42 -47 -51 -73 -51 -141 0 -75 25 -124 107 -212 l65 -71
428 0 427 0 64 71 c80 89 100 128 106 204 4 50 1 68 -19 105 -33 60 -93 101
-157 108 -43 4 -54 10 -75 37 -64 83 -206 100 -299 36 l-46 -31 -52 32 c-44
28 -63 33 -123 35 -55 3 -79 -1 -106 -16z m154 -85 c37 -15 66 -50 66 -79 0
-17 -5 -18 -37 -12 -59 11 -166 49 -170 60 -5 15 48 44 80 45 15 0 43 -6 61
-14z m364 -2 c12 -8 22 -19 22 -24 0 -26 -182 -82 -202 -62 -8 8 -6 18 6 37
38 58 126 83 174 49z m-636 -138 c12 -55 34 -93 105 -176 l64 -75 -53 -5
c-103 -10 -129 4 -199 109 -45 69 -36 130 27 172 38 25 47 21 56 -25z m866 10
c32 -30 37 -40 36 -78 -1 -49 -19 -84 -78 -145 l-40 -43 -78 0 c-43 0 -78 3
-78 6 0 3 30 40 66 82 65 76 104 143 104 180 0 42 20 42 68 -2z m-688 -26 c33
-11 83 -24 112 -28 l53 -7 3 -98 c4 -131 -7 -136 -98 -41 -75 80 -150 171
-150 185 0 13 14 11 80 -11z m506 -7 c-8 -16 -23 -37 -33 -48 -10 -11 -51 -57
-92 -103 -99 -110 -115 -110 -119 5 -4 104 4 119 65 127 26 3 75 15 108 25 85
27 88 27 71 -6z"/>
<path d="M4073 2309 c-17 -6 -23 -16 -23 -38 0 -25 -4 -30 -27 -33 -39 -4 -42
-28 -4 -28 l31 0 0 -90 c0 -49 5 -100 11 -114 21 -46 110 -62 117 -22 3 14 0
17 -13 12 -10 -4 -28 0 -42 9 -23 15 -24 20 -21 108 l3 92 33 3 c45 5 44 32
-2 32 -33 0 -35 2 -38 39 -3 35 -5 38 -25 30z"/>
<path d="M4588 2278 c-2 -28 -8 -34 -32 -38 -42 -7 -44 -28 -4 -32 l33 -3 3
-102 c3 -97 4 -103 29 -123 33 -26 86 -24 91 4 2 11 0 16 -6 12 -17 -10 -62
16 -68 38 -3 12 -4 55 -2 96 l3 75 33 5 c18 3 33 10 33 15 0 6 -15 12 -33 15
-29 4 -33 9 -36 38 -2 23 -8 32 -22 32 -14 0 -20 -9 -22 -32z"/>
<path d="M4267 2243 c-21 -20 -4 -29 46 -25 57 4 93 -14 99 -53 3 -16 -5 -20
-51 -27 -104 -16 -143 -56 -121 -123 9 -29 19 -37 52 -46 34 -9 49 -8 82 5 25
10 42 12 44 6 2 -5 12 -10 23 -10 17 0 19 8 19 83 -1 95 -12 153 -34 176 -16
16 -146 28 -159 14z m145 -173 c-5 -61 -63 -95 -109 -65 -55 36 -5 109 71 103
40 -3 41 -4 38 -38z"/>
<path d="M4823 2235 c-34 -15 -49 -48 -39 -88 3 -14 26 -34 58 -53 83 -47 73
-99 -18 -95 -39 1 -45 -1 -42 -16 3 -15 14 -18 61 -18 70 1 99 23 99 78 0 47
-5 53 -61 82 -58 29 -68 48 -40 76 15 15 30 20 55 17 27 -3 34 -1 32 11 -4 21
-64 25 -105 6z"/>
<path d="M5073 2133 c-43 -3 -53 -7 -53 -22 0 -16 8 -18 63 -17 34 1 65 5 69
11 7 10 -10 36 -21 33 -3 -1 -30 -3 -58 -5z"/>
<path d="M3760 1625 c0 -191 1 -206 18 -203 13 3 18 15 20 63 2 33 7 64 11 68
4 4 32 -22 62 -58 52 -63 86 -85 109 -70 7 4 -13 32 -54 75 -36 37 -66 72 -66
78 0 5 25 31 56 58 54 46 55 48 33 56 -19 8 -31 1 -80 -48 -41 -41 -60 -53
-63 -43 -3 8 -7 61 -8 119 -3 91 -5 105 -20 108 -17 3 -18 -12 -18 -203z"/>
<path d="M5482 1628 c3 -195 4 -203 23 -203 19 0 20 8 23 203 l2 202 -25 0
-25 0 2 -202z"/>
<path d="M5632 1628 c3 -202 3 -203 26 -206 l22 -3 0 205 0 206 -25 0 -25 0 2
-202z"/>
<path d="M4753 1762 c-6 -4 -13 -21 -15 -37 -1 -17 -9 -31 -15 -31 -7 -1 -20
-2 -28 -3 -29 -2 -16 -31 14 -31 l29 0 4 -99 c4 -120 18 -144 82 -139 43 3 64
28 24 28 -50 0 -68 35 -68 129 0 74 6 85 49 85 37 1 39 26 2 26 -32 0 -51 22
-51 59 0 22 -7 26 -27 13z"/>
<path d="M6647 1763 c-4 -3 -7 -19 -7 -34 0 -22 -6 -29 -31 -34 -35 -8 -34
-29 3 -33 26 -3 26 -4 30 -103 3 -92 5 -103 27 -120 28 -23 91 -26 91 -4 0 8
-9 15 -20 15 -11 0 -29 9 -40 20 -18 18 -20 31 -18 103 l3 82 34 5 c38 6 55
30 21 30 -38 0 -60 19 -60 50 0 28 -17 40 -33 23z"/>
<path d="M4093 1685 c-17 -7 -40 -28 -49 -47 -23 -43 -23 -118 0 -152 76 -116
250 -65 250 73 -1 113 -95 172 -201 126z m128 -44 c23 -24 29 -38 29 -73 0
-83 -57 -134 -123 -109 -62 24 -76 142 -22 188 37 32 80 30 116 -6z"/>
<path d="M4394 1687 c-2 -7 -3 -69 -2 -138 3 -102 6 -124 18 -124 12 0 16 20
21 99 5 92 8 101 33 123 33 28 69 30 96 3 17 -17 20 -33 20 -120 0 -83 3 -102
16 -107 24 -9 34 15 34 90 0 91 -17 154 -47 174 -30 20 -106 13 -133 -12 -17
-15 -20 -16 -20 -3 0 20 -29 32 -36 15z"/>
<path d="M5011 1683 c-18 -12 -26 -13 -29 -5 -2 7 -12 12 -23 12 -18 0 -19 -9
-19 -129 0 -108 3 -130 16 -135 9 -3 18 -6 20 -6 2 0 4 39 4 88 0 104 19 146
72 160 18 4 32 12 31 18 -4 16 -47 15 -72 -3z"/>
<path d="M5183 1680 c-90 -54 -82 -206 12 -246 101 -42 195 19 195 127 0 52
-30 106 -70 126 -37 19 -101 16 -137 -7z m126 -31 c31 -29 43 -67 36 -111 -8
-43 -53 -88 -89 -88 -52 0 -106 79 -92 135 3 13 18 37 32 54 31 38 79 42 113
10z"/>
<path d="M5828 1684 c-37 -19 -58 -63 -58 -119 0 -103 50 -149 157 -143 42 2
59 7 61 18 2 13 -9 16 -57 15 -49 0 -64 4 -85 24 -14 14 -26 35 -26 48 0 22 2
23 95 23 95 0 95 0 95 25 0 38 -25 90 -51 109 -29 20 -95 20 -131 0z m110 -30
c14 -10 22 -25 22 -45 l0 -29 -69 0 c-81 0 -94 13 -55 60 29 34 66 39 102 14z"/>
<path d="M6167 1683 c-13 -13 -19 -14 -29 -5 -32 32 -38 15 -38 -124 0 -124 2
-135 18 -132 14 3 18 18 22 102 5 92 7 99 33 122 16 13 37 24 48 24 10 0 19 7
19 15 0 21 -51 19 -73 -2z"/>
<path d="M6334 1681 c-40 -24 -58 -76 -51 -144 4 -44 10 -56 42 -84 33 -28 46
-33 89 -33 63 0 96 9 96 25 0 8 -20 12 -65 11 -56 -1 -68 2 -89 24 -13 14 -26
34 -28 45 -3 19 4 20 92 25 90 5 95 6 98 29 5 35 -5 65 -32 94 -21 22 -34 27
-73 27 -30 0 -60 -7 -79 -19z m122 -36 c44 -44 30 -60 -55 -60 -46 0 -76 4
-78 11 -2 6 8 26 22 43 34 39 75 42 111 6z"/>
<path d="M1740 1620 l0 -50 430 0 430 0 0 50 0 50 -430 0 -430 0 0 -50z"/>
<path d="M4734 1277 c-2 -7 -3 -98 -2 -202 3 -188 3 -190 26 -193 l22 -3 0
205 c0 200 -1 206 -20 206 -11 0 -23 -6 -26 -13z"/>
<path d="M4110 1080 c0 -193 1 -200 20 -200 18 0 20 7 20 65 0 36 4 65 9 65 5
0 34 -28 65 -61 36 -40 64 -63 81 -64 14 -2 25 -1 25 3 0 3 -28 36 -61 74
l-62 70 59 59 c58 59 58 59 29 59 -23 0 -42 -13 -79 -50 -27 -28 -52 -50 -57
-50 -5 0 -9 52 -9 115 0 108 -1 115 -20 115 -19 0 -20 -7 -20 -200z"/>
<path d="M5987 1274 c-4 -4 -7 -92 -7 -195 0 -140 3 -188 13 -191 28 -11 37 4
37 63 0 63 9 73 34 37 37 -52 95 -104 120 -106 14 -1 26 1 26 5 0 3 -30 38
-67 76 l-68 70 64 58 c60 56 62 59 36 59 -20 0 -44 -15 -84 -52 l-56 -53 -5
115 c-4 93 -8 115 -20 118 -9 1 -19 0 -23 -4z"/>
<path d="M5592 1248 c2 -15 10 -23 23 -23 13 0 21 8 23 23 3 18 -1 22 -23 22
-22 0 -26 -4 -23 -22z"/>
<path d="M3950 1165 c-9 -11 -22 -14 -47 -9 -122 23 -209 -125 -134 -227 14
-19 20 -37 16 -49 -7 -23 7 -27 24 -6 8 9 25 12 56 8 92 -10 145 42 145 141 0
45 -5 61 -26 86 -17 21 -23 37 -19 51 8 24 2 26 -15 5z m-47 -47 c15 -12 13
-19 -20 -73 -72 -120 -64 -111 -79 -90 -8 10 -14 39 -14 63 0 37 6 50 34 78
37 37 53 41 79 22z m61 -70 c18 -72 -24 -138 -89 -138 -19 0 -35 5 -35 11 0
11 65 133 83 157 16 20 31 9 41 -30z"/>
<path d="M4454 1146 c-73 -33 -100 -116 -64 -191 26 -53 61 -75 122 -75 136 0
188 181 73 256 -34 22 -94 27 -131 10z m119 -57 c21 -23 27 -39 27 -73 0 -96
-88 -140 -151 -77 -52 52 -32 154 35 181 30 12 57 3 89 -31z"/>
<path d="M4954 1146 c-69 -30 -98 -106 -69 -182 21 -56 63 -84 123 -84 88 0
132 48 132 144 0 66 -31 110 -88 126 -47 13 -60 12 -98 -4z m119 -57 c60 -65
18 -179 -65 -179 -77 0 -123 127 -66 183 44 44 87 43 131 -4z"/>
<path d="M5293 1141 c-42 -26 -63 -69 -63 -128 0 -112 77 -155 193 -108 14 6
17 2 17 -25 0 -22 -9 -41 -30 -62 -29 -28 -35 -30 -90 -26 -53 4 -60 2 -60
-14 0 -16 9 -18 68 -18 74 0 106 12 134 51 17 22 20 49 25 182 l5 157 -26 0
c-18 0 -26 -5 -26 -17 0 -15 -2 -15 -19 1 -30 28 -90 31 -128 7z m92 -23 c70
-32 74 -157 6 -192 -97 -51 -164 113 -74 183 30 24 34 25 68 9z"/>
<path d="M5770 1147 c-57 -29 -48 -105 18 -138 64 -33 76 -54 46 -83 -9 -10
-33 -16 -60 -16 -32 0 -44 -4 -44 -15 0 -12 13 -15 60 -15 70 0 100 21 100 69
0 47 -10 60 -61 87 -39 19 -49 30 -49 49 0 28 26 45 69 45 21 0 31 5 31 15 0
19 -74 20 -110 2z"/>
<path d="M5592 1018 c3 -116 5 -131 21 -134 15 -2 17 10 17 132 0 128 -1 134
-20 134 -20 0 -20 -5 -18 -132z"/>
</g>
</svg>
