<?xml version="1.0" encoding="UTF-8"?>
<svg version="1.1" xmlns="http://www.w3.org/2000/svg" width="200" height="200">
<path d="M0 0 C5.15533005 0.53719406 8.2034417 1.30891045 12.01171875 5.1171875 C12.79546875 4.4778125 13.57921875 3.8384375 14.38671875 3.1796875 C18.42713539 0.00507442 20.83741297 -0.42747627 26.01171875 0.1171875 C28.01171875 2.1171875 28.01171875 2.1171875 29.01171875 5.1171875 C28.98486972 8.62769771 28.59986926 11.94088649 27.01171875 15.1171875 C27.93984375 15.7153125 28.86796875 16.3134375 29.82421875 16.9296875 C35.60493909 20.89684852 35.60493909 20.89684852 36.82421875 24.5546875 C37.03750857 27.46964843 36.63833112 28.72007454 35.01171875 31.1171875 C32.36713496 32.43947939 30.33410574 32.21395944 27.38671875 32.1796875 C26.38382813 32.17066406 25.3809375 32.16164062 24.34765625 32.15234375 C23.57679687 32.14074219 22.8059375 32.12914062 22.01171875 32.1171875 C21.92921875 33.1484375 21.84671875 34.1796875 21.76171875 35.2421875 C20.90918574 39.64694137 19.66930386 41.60231687 17.01171875 45.1171875 C17.69234375 45.6534375 18.37296875 46.1896875 19.07421875 46.7421875 C21.01171875 49.1171875 21.01171875 49.1171875 21.13671875 52.0546875 C19.59079829 56.26302653 17.6762278 57.57446693 14.01171875 60.1171875 C13.35171875 60.1171875 12.69171875 60.1171875 12.01171875 60.1171875 C12.50671875 61.4165625 12.50671875 61.4165625 13.01171875 62.7421875 C14.25288257 66.93111538 14.57629112 70.21817136 13.32421875 74.4296875 C12.01171875 76.1171875 12.01171875 76.1171875 9.88671875 77.1171875 C6.22436331 77.1171875 4.09501733 75.84901538 0.9765625 74.02734375 C-1.23229827 72.83697675 -1.23229827 72.83697675 -4.98828125 73.1171875 C-5.60703125 73.5915625 -6.22578125 74.0659375 -6.86328125 74.5546875 C-9.59735107 76.56503295 -11.62158023 76.90676869 -14.98828125 77.1171875 C-17.73782453 76.15113175 -18.67835882 75.73703236 -19.98828125 73.1171875 C-20.26671179 68.29105807 -19.74473852 64.61810924 -17.98828125 60.1171875 C-18.73078125 59.8903125 -19.47328125 59.6634375 -20.23828125 59.4296875 C-23.63151846 57.81018792 -25.07733141 56.35110261 -26.98828125 53.1171875 C-27.11328125 49.9921875 -27.11328125 49.9921875 -25.98828125 47.1171875 C-21.71815355 44.06709629 -18.14668743 43.72038702 -12.98828125 44.1171875 C-12.32828125 44.4471875 -11.66828125 44.7771875 -10.98828125 45.1171875 C-10.90578125 44.0859375 -10.82328125 43.0546875 -10.73828125 41.9921875 C-9.88574824 37.58743363 -8.64586636 35.63205813 -5.98828125 32.1171875 C-7.30828125 31.1271875 -8.62828125 30.1371875 -9.98828125 29.1171875 C-9.64180222 23.22704405 -8.32761931 21.02259176 -3.98828125 17.1171875 C-2.64445739 14.20949819 -2.64445739 14.20949819 -3.98828125 11.8671875 C-5.30007441 8.25975631 -4.82695489 5.82132941 -3.98828125 2.1171875 C-1.98828125 0.1171875 -1.98828125 0.1171875 0 0 Z M11.01171875 19.1171875 C11.01171875 20.1071875 11.01171875 21.0971875 11.01171875 22.1171875 C12.33171875 21.7871875 13.65171875 21.4571875 15.01171875 21.1171875 C14.68171875 20.4571875 14.35171875 19.7971875 14.01171875 19.1171875 C13.02171875 19.1171875 12.03171875 19.1171875 11.01171875 19.1171875 Z M0.01171875 33.1171875 C0.65109375 34.1690625 1.29046875 35.2209375 1.94921875 36.3046875 C3.62926327 39.22547162 4.60167927 41.7343618 5.01171875 45.1171875 C6.99171875 44.7871875 8.97171875 44.4571875 11.01171875 44.1171875 C10.37234375 43.0859375 9.73296875 42.0546875 9.07421875 40.9921875 C7.19460504 37.73109092 6.38045344 34.89671806 6.01171875 31.1171875 C3.92743666 31.1171875 1.91353911 32.33695351 0.01171875 33.1171875 Z M-4.98828125 55.1171875 C-4.65828125 56.1071875 -4.32828125 57.0971875 -3.98828125 58.1171875 C-2.99828125 58.1171875 -2.00828125 58.1171875 -0.98828125 58.1171875 C-0.98828125 57.1271875 -0.98828125 56.1371875 -0.98828125 55.1171875 C-2.30828125 55.1171875 -3.62828125 55.1171875 -4.98828125 55.1171875 Z " fill="#2B2B2B" transform="translate(93.98828125,16.8828125)"/>
<path d="M0 0 C2.83212798 2.50281077 4.90305891 4.85458837 7 8 C7.845625 7.649375 8.69125 7.29875 9.5625 6.9375 C13.49699444 5.86445606 16.04988208 6.08843433 20 7 C22 9 22 9 22.1171875 10.953125 C21.5409257 16.41831752 20.4279822 19.68737723 17 24 C17.9590625 25.175625 17.9590625 25.175625 18.9375 26.375 C21.91205876 30.16080206 22.39356298 32.17885355 22 37 C20.39875395 39.16877629 19.52512459 39.91152792 16.84375 40.36328125 C15.68359375 40.33814453 15.68359375 40.33814453 14.5 40.3125 C13.7265625 40.30863281 12.953125 40.30476563 12.15625 40.30078125 C10 40 10 40 7 38 C6.401875 38.928125 5.80375 39.85625 5.1875 40.8125 C1.79310345 45.75862069 1.79310345 45.75862069 0 47 C-2.9375 47.4375 -2.9375 47.4375 -6 47 C-8.375 45 -8.375 45 -10 43 C-11.299375 44.2065625 -11.299375 44.2065625 -12.625 45.4375 C-15.62876093 47.96924136 -18.03203262 48.71657376 -22 49 C-21.94779297 50.01320313 -21.94779297 50.01320313 -21.89453125 51.046875 C-21.86746094 51.93890625 -21.84039062 52.8309375 -21.8125 53.75 C-21.76029297 55.07257813 -21.76029297 55.07257813 -21.70703125 56.421875 C-22.05660706 59.49814211 -22.84854019 60.80319326 -25 63 C-28.76171567 63.65421142 -30.44392999 63.34916024 -33.6875 61.3125 C-35.98036806 59.01963194 -37.4915323 56.85814932 -39 54 C-40.485 54.495 -40.485 54.495 -42 55 C-44.15625 55.203125 -44.15625 55.203125 -46.5 55.25 C-47.2734375 55.27578125 -48.046875 55.3015625 -48.84375 55.328125 C-51.53824992 54.9180924 -52.38099219 54.15698533 -54 52 C-54.82459059 46.69906051 -53.01137076 44.23474013 -50 40 C-49.70591415 36.8376401 -49.70591415 36.8376401 -52 34.25 C-54.33522789 30.45525468 -54.50524013 28.3787478 -54 24 C-52 22 -52 22 -49.7578125 21.734375 C-48.45457031 21.74210937 -48.45457031 21.74210937 -47.125 21.75 C-46.26132812 21.74484375 -45.39765625 21.7396875 -44.5078125 21.734375 C-41.89526423 22.01109351 -40.2499912 22.6814005 -38 24 C-37.62488281 23.50628906 -37.24976562 23.01257813 -36.86328125 22.50390625 C-32.66422531 17.24715361 -32.66422531 17.24715361 -29.3125 16 C-27 16 -27 16 -24 17 C-21.71937172 20.42094242 -21.78074993 21.68187222 -21.875 25.6875 C-21.89304688 26.68136719 -21.91109375 27.67523438 -21.9296875 28.69921875 C-21.95289063 29.45847656 -21.97609375 30.21773437 -22 31 C-21.28972656 31.27714844 -20.57945313 31.55429688 -19.84765625 31.83984375 C-18.92855469 32.20207031 -18.00945313 32.56429687 -17.0625 32.9375 C-15.68771484 33.47697266 -15.68771484 33.47697266 -14.28515625 34.02734375 C-12 35 -12 35 -11 36 C-10.67 35.01 -10.34 34.02 -10 33 C-11.06541016 32.47599609 -11.06541016 32.47599609 -12.15234375 31.94140625 C-13.07144531 31.48636719 -13.99054687 31.03132813 -14.9375 30.5625 C-15.85402344 30.11003906 -16.77054688 29.65757812 -17.71484375 29.19140625 C-20 28 -20 28 -21 27 C-21.375 23.6875 -21.375 23.6875 -21 20 C-17.8248878 16.54473084 -14.46688226 15.24657179 -10 14 C-10.05220703 13.11248047 -10.05220703 13.11248047 -10.10546875 12.20703125 C-10.27423044 7.28079723 -10.24691546 3.99620364 -7 0 C-4.19664415 -1.40167793 -2.9650644 -0.96536981 0 0 Z M1 21 C1 22.32 1 23.64 1 25 C1.99 25 2.98 25 4 25 C3.67 23.68 3.34 22.36 3 21 C2.34 21 1.68 21 1 21 Z M-34 37 C-34.99 38.485 -34.99 38.485 -36 40 C-34.68 40.33 -33.36 40.66 -32 41 C-32.33 39.68 -32.66 38.36 -33 37 C-33.33 37 -33.66 37 -34 37 Z " fill="#2B2B2B" transform="translate(71,103)"/>
<path d="M0 0 C2.90211916 3.09559377 3.1682035 5.72807459 3.1875 9.8125 C3.13966204 11.20891272 3.08204828 12.60517921 3 14 C3.54269531 14.18175781 4.08539063 14.36351563 4.64453125 14.55078125 C5.35996094 14.80214844 6.07539063 15.05351563 6.8125 15.3125 C7.52019531 15.55613281 8.22789062 15.79976562 8.95703125 16.05078125 C11.20748741 17.09640429 12.46271932 18.05717902 14 20 C14.5625 23.4375 14.5625 23.4375 14 27 C10.65818496 29.87551526 7.1388248 31.53923831 3 33 C3.33 33.99 3.66 34.98 4 36 C5.0725 35.360625 6.145 34.72125 7.25 34.0625 C9.8117767 32.53528697 12.07730257 31.61428375 15 31 C14.97679687 30.32453125 14.95359375 29.6490625 14.9296875 28.953125 C14.91164062 28.06109375 14.89359375 27.1690625 14.875 26.25 C14.85179687 25.36828125 14.82859375 24.4865625 14.8046875 23.578125 C15.01239157 20.83643132 15.48206201 19.27946244 17 17 C19.6875 15.875 19.6875 15.875 23 16 C25.63849438 17.70597038 27.80373483 19.76411149 30 22 C30.66 22.66 31.32 23.32 32 24 C33.32 23.34 34.64 22.68 36 22 C36 32.89 36 43.78 36 55 C34.68 54.67 33.36 54.34 32 54 C31.67386719 54.48210937 31.34773438 54.96421875 31.01171875 55.4609375 C30.57472656 56.09257812 30.13773438 56.72421875 29.6875 57.375 C29.25824219 58.00148437 28.82898438 58.62796875 28.38671875 59.2734375 C26.19400151 62.00352488 24.4570638 62.94286702 21 63.375 C18 63 18 63 16.32421875 61.3046875 C14.7393891 58.54642941 14.68800439 56.90388883 14.8125 53.75 C14.85310547 52.41195312 14.85310547 52.41195312 14.89453125 51.046875 C14.92933594 50.37140625 14.96414062 49.6959375 15 49 C13.7625 48.7525 12.525 48.505 11.25 48.25 C7.48560327 47.3289242 5.46922107 46.08652634 3 43 C2.46375 43.66 1.9275 44.32 1.375 45 C-1 47 -1 47 -3.875 47.6875 C-8.47160058 46.67624787 -10.38863055 43.75969152 -13 40 C-13.33 39.34 -13.66 38.68 -14 38 C-14.99 38.66 -15.98 39.32 -17 40 C-19.15625 40.265625 -19.15625 40.265625 -21.5 40.25 C-22.66015625 40.25773437 -22.66015625 40.25773437 -23.84375 40.265625 C-26 40 -26 40 -29 38 C-28.7242265 31.7950962 -27.89359206 27.89839001 -24 23 C-24.639375 22.34 -25.27875 21.68 -25.9375 21 C-28.64066711 17.06812057 -28.84684317 14.74786159 -29 10 C-27 7 -27 7 -23.75 6.1875 C-19.90835374 5.99541769 -17.52146952 6.53987849 -14 8 C-13.59007812 7.43410156 -13.18015625 6.86820312 -12.7578125 6.28515625 C-12.21898437 5.55167969 -11.68015625 4.81820312 -11.125 4.0625 C-10.59132812 3.33160156 -10.05765625 2.60070312 -9.5078125 1.84765625 C-6.59779674 -1.7182439 -4.22803109 -1.20800888 0 0 Z M-10 21 C-10 22.32 -10 23.64 -10 25 C-9.01 24.67 -8.02 24.34 -7 24 C-7.33 23.01 -7.66 22.02 -8 21 C-8.66 21 -9.32 21 -10 21 Z M26 37 C25.67 38.32 25.34 39.64 25 41 C26.32 40.67 27.64 40.34 29 40 C28.01 39.01 27.02 38.02 26 37 Z " fill="#2B2B2B" transform="translate(164,103)"/>
<path d="M0 0 C2.85212766 2.85212766 2.73901015 5.01990482 3 9 C2.52944399 11.45259494 1.82239721 13.62956099 1 16 C2.051875 16.061875 3.10375 16.12375 4.1875 16.1875 C8.70459275 17.15015911 10.25177691 18.33570254 13 22 C13.6875 24.5 13.6875 24.5 13 27 C9.20009476 30.98085311 6.62079741 32.59851447 1 33 C0.96261719 33.60328125 0.92523438 34.2065625 0.88671875 34.828125 C0.59600793 38.3622565 0.31291563 41.32476102 -1.1875 44.5625 C-3 46 -3 46 -5.875 46.5625 C-10.03073168 45.8144683 -11.34741495 44.22611695 -14 41 C-15.05287814 39.36622358 -16.0727001 37.70818403 -17 36 C-17.99 36.495 -17.99 36.495 -19 37 C-23.34454518 37.51161632 -26.84488011 37.71507422 -30.625 35.375 C-32 33 -32 33 -32.0625 30.125 C-30.71223099 26.15362057 -28.84330455 24.06202028 -26 21 C-26.28875 20.443125 -26.5775 19.88625 -26.875 19.3125 C-27.24625 18.549375 -27.6175 17.78625 -28 17 C-28.391875 16.236875 -28.78375 15.47375 -29.1875 14.6875 C-30.26013267 11.13956118 -29.81167769 8.58490982 -29 5 C-27 3 -27 3 -25.01171875 2.91796875 C-20.31773719 3.46231283 -16.89940303 4.10689453 -13 7 C-12.7525 6.401875 -12.505 5.80375 -12.25 5.1875 C-9.24587243 -0.06972325 -5.84576425 -0.54127447 0 0 Z M-12 20 C-11.67 21.32 -11.34 22.64 -11 24 C-10.34 24 -9.68 24 -9 24 C-9.33 22.68 -9.66 21.36 -10 20 C-10.66 20 -11.32 20 -12 20 Z " fill="#2B2B2B" transform="translate(83,149)"/>
<path d="M0 0 C3.3439609 -0.51445552 5.80183314 -0.70480404 8.79296875 1.0546875 C10.4375 2.375 10.4375 2.375 13 5 C13 5.66 13 6.32 13 7 C13.66 6.525625 14.32 6.05125 15 5.5625 C18.95628444 3.50193519 21.51929499 3.0711223 26 3 C28.5625 4.4375 28.5625 4.4375 30 7 C30.2457787 11.00619274 29.56266595 14.09973448 27.4375 17.5 C26.963125 17.995 26.48875 18.49 26 19 C27.19142522 21.58142131 28.44851831 23.5894812 30.1875 25.875 C32 29 32 29 31.9375 32.25 C31 35 31 35 28 37 C25.80859375 37.23046875 25.80859375 37.23046875 23.4375 37.1875 C22.25994141 37.17783203 22.25994141 37.17783203 21.05859375 37.16796875 C19 37 19 37 17 36 C16.67386719 36.55429688 16.34773438 37.10859375 16.01171875 37.6796875 C15.57472656 38.40414062 15.13773438 39.12859375 14.6875 39.875 C14.25824219 40.59429687 13.82898438 41.31359375 13.38671875 42.0546875 C12 44 12 44 9 46 C6 46.375 6 46.375 3 46 C-0.03824343 43.59035866 -0.25973366 40.92069764 -0.6875 37.25 C-0.80395353 35.83429039 -0.91214662 34.41777182 -1 33 C-1.61488281 32.81824219 -2.22976562 32.63648438 -2.86328125 32.44921875 C-3.67152344 32.19785156 -4.47976562 31.94648438 -5.3125 31.6875 C-6.11300781 31.44386719 -6.91351563 31.20023438 -7.73828125 30.94921875 C-10.15872778 29.93338368 -11.42559901 29.09242971 -13 27 C-13.0625 23.5625 -13.0625 23.5625 -12 20 C-9.01207626 17.35161305 -7.12158978 16.09752955 -3.125 15.75 C-2.42375 15.8325 -1.7225 15.915 -1 16 C-1.350625 15.34 -1.70125 14.68 -2.0625 14 C-3.35352145 9.86873137 -2.82314318 7.25290643 -2 3 C-1.34 2.01 -0.68 1.02 0 0 Z M9 20 C9 21.32 9 22.64 9 24 C9.99 23.67 10.98 23.34 12 23 C12 22.01 12 21.02 12 20 C11.01 20 10.02 20 9 20 Z " fill="#2B2B2B" transform="translate(145,149)"/>
<path d="M0 0 C1.67578125 1.203125 1.67578125 1.203125 3 3 C3.328125 5.375 3.328125 5.375 3.25 8 C3.23453125 8.86625 3.2190625 9.7325 3.203125 10.625 C3 13 3 13 2 16 C2.721875 16.061875 3.44375 16.12375 4.1875 16.1875 C7.95115098 17.27477695 9.53870956 18.99175613 12 22 C13.0625 24.5625 13.0625 24.5625 13 27 C11.15554062 29.28967371 9.62637553 30.68681224 7 32 C5.45976004 32.06950541 3.91665012 32.08452357 2.375 32.0625 C1.14910156 32.04896484 1.14910156 32.04896484 -0.1015625 32.03515625 C-0.72804687 32.02355469 -1.35453125 32.01195312 -2 32 C-1.8453125 33.546875 -1.8453125 33.546875 -1.6875 35.125 C-2.10253519 40.27143638 -3.13478709 41.63894529 -7 45 C-10.0625 45.1875 -10.0625 45.1875 -13 44 C-16.56116228 40.63133297 -17.55050746 37.83204486 -18 33 C-19.485 33.495 -19.485 33.495 -21 34 C-26.4295631 34.35029439 -29.50002981 34.37497764 -34 31 C-33.82612422 25.95760232 -33.61012754 23.1121372 -29.9375 19.5 C-28.4834375 18.2625 -28.4834375 18.2625 -27 17 C-27.495 16.34 -27.99 15.68 -28.5 15 C-30.55062493 10.89875014 -30.51505571 8.56192201 -30 4 C-28.5625 1.875 -28.5625 1.875 -26 1 C-21.06441991 1.39846885 -16.65522614 2.50369674 -13 6 C-12.21625 5.195625 -11.4325 4.39125 -10.625 3.5625 C-6.95977283 -0.01545985 -5.08351497 -0.41498081 0 0 Z M-13 19 C-13 20.32 -13 21.64 -13 23 C-12.01 22.67 -11.02 22.34 -10 22 C-10 21.01 -10 20.02 -10 19 C-10.99 19 -11.98 19 -13 19 Z " fill="#2B2B2B" transform="translate(147,52)"/>
<path d="M0 0 C0.99 0 1.98 0 3 0 C4.19609012 3.77015458 4.17296041 7.51564395 4.20532227 11.43066406 C4.21522186 12.17251953 4.22512146 12.914375 4.23532104 13.67871094 C4.26684147 16.12431679 4.29165595 18.56994205 4.31640625 21.015625 C4.33698395 22.7138519 4.35798064 24.41207377 4.37937927 26.11029053 C4.43451567 30.5752759 4.48396207 35.04030685 4.53222656 39.50537109 C4.58250322 44.06351772 4.63815709 48.62159834 4.69335938 53.1796875 C4.80083778 62.11973525 4.90230559 71.05984036 5 80 C5.55461914 79.42443359 6.10923828 78.84886719 6.68066406 78.25585938 C9.19330864 75.66019559 11.72133022 73.08005058 14.25 70.5 C15.12269531 69.59378906 15.99539062 68.68757813 16.89453125 67.75390625 C17.73886719 66.89667969 18.58320313 66.03945312 19.453125 65.15625 C20.22817383 64.36025391 21.00322266 63.56425781 21.80175781 62.74414062 C24 61 24 61 28 61 C27.70730537 64.33562121 27.25298029 65.74016427 24.8828125 68.17456055 C23.97273438 68.90457275 23.06265625 69.63458496 22.125 70.38671875 C9.45597397 80.67273317 9.45597397 80.67273317 3.3203125 95.23046875 C2.93161047 101.52343525 3.2103803 107.74747055 4 114 C2.02 114 0.04 114 -2 114 C-1.90984619 113.33282959 -1.81969238 112.66565918 -1.72680664 111.97827148 C-0.12898258 97.5971544 -0.12898258 97.5971544 -5.3046875 84.57568359 C-10.77276481 78.05716254 -17.31603208 72.50194046 -23.90454102 67.15283203 C-26 65 -26 65 -26 61 C-21.57276936 61.49342694 -19.65035853 62.87049446 -16.57421875 66.03515625 C-15.38022461 67.24848633 -15.38022461 67.24848633 -14.16210938 68.48632812 C-13.34548828 69.33646484 -12.52886719 70.18660156 -11.6875 71.0625 C-10.85154297 71.91650391 -10.01558594 72.77050781 -9.15429688 73.65039062 C-7.09357656 75.75821312 -5.04276791 77.87479849 -3 80 C-2.99191315 79.02725128 -2.98382629 78.05450256 -2.97549438 77.05227661 C-2.89811721 67.89933996 -2.81039959 58.7465535 -2.71247292 49.59381294 C-2.66245857 44.88793021 -2.61612917 40.18207049 -2.578125 35.47607422 C-2.54133687 30.93724907 -2.49499496 26.39861412 -2.44193649 21.85995102 C-2.42335801 20.12558187 -2.40826291 18.39117191 -2.39665604 16.6567421 C-2.37985235 14.23336423 -2.35083252 11.81042527 -2.31884766 9.38720703 C-2.31668747 8.66503998 -2.31452728 7.94287292 -2.31230164 7.19882202 C-2.22810432 2.22810432 -2.22810432 2.22810432 0 0 Z " fill="#2A2A2A" transform="translate(112,86)"/>
</svg>
