<?xml version="1.0" standalone="no"?>
<!DOCTYPE svg PUBLIC "-//W3C//DTD SVG 20010904//EN"
 "http://www.w3.org/TR/2001/REC-SVG-20010904/DTD/svg10.dtd">
<svg version="1.0" xmlns="http://www.w3.org/2000/svg"
 width="200.000000pt" height="200.000000pt" viewBox="0 0 200.000000 200.000000"
 preserveAspectRatio="xMidYMid meet">

<g transform="translate(0.000000,200.000000) scale(0.100000,-0.100000)"
fill="#000000" stroke="none">
<path d="M813 1187 c-700 -699 -655 -641 -564 -728 106 -102 256 -183 408
-221 125 -31 315 -31 433 0 518 137 812 661 653 1166 -42 135 -111 252 -202
347 -87 91 -29 136 -728 -564z m686 355 c90 -141 126 -278 118 -451 -8 -182
-74 -341 -194 -471 -229 -247 -585 -311 -888 -160 -44 22 -91 49 -105 59 l-25
20 45 45 45 45 54 -34 c144 -92 350 -115 517 -59 196 65 357 236 410 434 27
104 23 246 -11 348 -15 45 -43 106 -61 135 l-33 52 42 43 c22 23 44 42 48 42
4 0 21 -22 38 -48z m-214 -215 c14 -29 28 -68 31 -85 l7 -32 -124 0 -124 0 85
85 c47 47 88 85 93 85 4 0 19 -24 32 -53z m31 -308 c-7 -37 -56 -149 -65 -149
-9 0 -171 163 -171 172 0 5 55 8 121 8 l122 0 -7 -31z m-526 -219 c0 -100 -3
-120 -15 -120 -21 0 -144 50 -151 62 -5 8 151 178 163 178 2 0 3 -54 3 -120z
m260 35 c46 -46 82 -86 79 -88 -15 -15 -111 -57 -142 -62 l-37 -7 0 121 c0 66
3 121 8 121 4 0 45 -38 92 -85z"/>
</g>
</svg>
