<?xml version="1.0" standalone="no"?>
<!DOCTYPE svg PUBLIC "-//W3C//DTD SVG 20010904//EN"
 "http://www.w3.org/TR/2001/REC-SVG-20010904/DTD/svg10.dtd">
<svg version="1.0" xmlns="http://www.w3.org/2000/svg"
 width="200.000000pt" height="200.000000pt" viewBox="0 0 200.000000 200.000000"
 preserveAspectRatio="xMidYMid meet">

<g transform="translate(0.000000,200.000000) scale(0.100000,-0.100000)"
fill="#000000" stroke="none">
<path d="M602 1783 c-26 -22 -200 -606 -209 -698 -10 -111 33 -248 105 -337
91 -114 249 -202 400 -223 l52 -7 0 -174 0 -174 -139 0 c-114 0 -143 -3 -155
-16 -19 -18 -20 -28 -6 -55 10 -18 25 -19 345 -19 290 0 336 2 349 16 19 18
20 28 6 55 -10 17 -23 19 -155 19 l-145 0 0 173 0 173 63 11 c298 52 517 298
494 554 -8 89 -184 680 -209 702 -18 15 -53 17 -398 17 -345 0 -380 -2 -398
-17z m819 -353 c43 -146 79 -272 79 -282 0 -25 -87 -42 -184 -36 -88 6 -185
36 -341 105 -128 57 -211 76 -333 76 -89 0 -102 2 -98 16 50 172 90 306 102
344 l16 47 340 -2 341 -3 78 -265z m-577 -259 c32 -11 103 -41 157 -66 54 -25
136 -54 181 -65 92 -22 230 -26 291 -9 22 6 41 9 43 6 9 -8 -17 -110 -40 -160
-46 -96 -165 -194 -289 -237 -87 -31 -231 -38 -317 -16 -178 46 -319 161 -366
298 -22 65 -24 190 -3 233 19 39 44 45 174 41 80 -3 126 -9 169 -25z"/>
</g>
</svg>
