<?xml version="1.0" standalone="no"?>
<!DOCTYPE svg PUBLIC "-//W3C//DTD SVG 20010904//EN"
 "http://www.w3.org/TR/2001/REC-SVG-20010904/DTD/svg10.dtd">
<svg version="1.0" xmlns="http://www.w3.org/2000/svg"
 width="201.000000pt" height="200.000000pt" viewBox="0 0 201.000000 200.000000"
 preserveAspectRatio="xMidYMid meet">

<g transform="translate(0.000000,200.000000) scale(0.100000,-0.100000)"
fill="#000000" stroke="none">
<path d="M597 1797 c-20 -14 -191 -581 -208 -688 -25 -164 49 -343 188 -454
100 -79 184 -116 346 -150 l27 -5 0 -155 0 -155 -134 0 c-113 0 -137 -3 -154
-18 -34 -29 -37 -58 -8 -87 l26 -26 336 3 c319 3 336 4 350 22 18 25 18 57 0
82 -13 17 -29 19 -155 22 l-142 4 3 156 3 157 53 7 c116 17 261 91 351 180
109 108 146 196 145 353 0 110 0 111 -93 420 -51 171 -100 318 -108 328 -15
16 -48 17 -413 17 -303 0 -400 -3 -413 -13z m816 -369 c43 -145 77 -268 77
-275 0 -15 -78 -28 -157 -26 -85 3 -169 26 -293 83 -158 72 -228 91 -358 97
-97 5 -112 8 -107 22 2 9 18 63 35 121 17 58 40 135 51 173 l20 67 328 0 328
0 76 -262z"/>
</g>
</svg>
