<?xml version="1.0" encoding="UTF-8"?>
<svg version="1.1" xmlns="http://www.w3.org/2000/svg" width="200" height="200">
<path d="M0 0 C5.59790328 11.70470685 6.37424721 23.5273362 3 36 C3.88816406 36.25523438 4.77632812 36.51046875 5.69140625 36.7734375 C17.23850373 41.05417966 25.62360827 52.08139028 30.71484375 62.84765625 C40.54997891 86.97213671 37.41835022 116.72918503 27.62109375 140.3203125 C24.32182438 147.3503633 20.16767008 153.2232491 15 159 C14.31035156 159.77214844 13.62070313 160.54429687 12.91015625 161.33984375 C3.34093027 171.46280432 -7.29202042 178.97229647 -21.375 179.4375 C-28.89534993 179.29504073 -34.48347188 177.52106007 -40.98046875 173.89453125 C-44.87727353 172.16848039 -48.84249777 172.39419253 -53 173 C-55.73577236 174.08649245 -58.21953171 175.3486248 -60.7734375 176.80859375 C-67.07369584 180.17978462 -75.05129397 180.05628367 -82 179 C-91.65230245 175.78927583 -98.90494456 170.10710137 -106 163 C-107.15435547 161.95199219 -107.15435547 161.95199219 -108.33203125 160.8828125 C-123.54922547 146.72848875 -131.11908895 125.50871043 -132 105 C-132.71182946 84.01673312 -130.93658117 63.36762342 -116.75 46.8125 C-110.27849959 39.88949956 -101.76443557 33.1941236 -91.94921875 32.56640625 C-90.5288442 32.54263153 -89.10792506 32.54196296 -87.6875 32.5625 C-86.93621826 32.57152344 -86.18493652 32.58054688 -85.41088867 32.58984375 C-79.22051768 32.78222822 -74.44432754 33.97445004 -69 37 C-68.41492676 37.32162109 -67.82985352 37.64324219 -67.22705078 37.97460938 C-63.10972409 40.24809427 -59.04420374 42.59911824 -55 45 C-54.87044922 44.12601563 -54.87044922 44.12601563 -54.73828125 43.234375 C-52.17195634 28.26022232 -45.34067657 15.95136394 -33 6.9375 C-22.55011399 0.26405794 -12.02426512 -0.5987186 0 0 Z M-27.8125 25.25 C-31.20348948 28.9012282 -35 33.8156453 -35 39 C-34.360625 38.731875 -33.72125 38.46375 -33.0625 38.1875 C-22.75765646 34.19174434 -22.75765646 34.19174434 -17.5625 33.625 C-14.8697257 33.26467183 -14.8697257 33.26467183 -13.625 31.0625 C-12.73397576 26.69648124 -12.84484236 22.43923253 -13 18 C-18.51466396 18 -23.93370436 21.5810959 -27.8125 25.25 Z M-106 61 C-116.73709911 76.53565451 -115.92450347 99.19264439 -113 117.0625 C-109.86622312 130.0076344 -103.46291616 140.70913686 -94 150 C-93.12214844 150.98226562 -93.12214844 150.98226562 -92.2265625 151.984375 C-87.03745 157.68509014 -80.97523972 161.80764969 -73.125 162.1875 C-69.49029439 161.46055888 -66.59605728 159.72697626 -63.375 157.9375 C-54.95479918 153.51476825 -46.48174027 153.81290313 -37.4375 156.3125 C-34.79422324 157.21790811 -32.81076436 158.12000309 -30.4375 159.625 C-26.68838682 161.73988436 -23.28903421 162.31416493 -19 162 C-10.88316749 159.54427042 -4.88675181 153.86627616 1 148 C1.56589844 147.45730469 2.13179688 146.91460937 2.71484375 146.35546875 C17.0495358 131.3363617 18.41009928 109.93656722 18.2109375 90.40234375 C17.93121551 78.46581235 15.5582472 67.80257406 7.0078125 58.93359375 C1.39685765 53.86256097 -3.54957979 50.34905257 -11.1875 49.75 C-20.4635809 50.3582676 -25.90325961 54.25800654 -33.14453125 59.90234375 C-38.2504708 63.65321863 -43.3394007 65.66288872 -49.828125 65.3359375 C-58.36685881 64.0151981 -65.52769296 59.74191696 -72.69750977 55.17407227 C-85.84470277 46.87141641 -95.76180722 49.91020154 -106 61 Z " fill="#2B2B2B" transform="translate(148,8)"/>
<path d="M0 0 C3.54087858 0.91233448 4.98643349 2.68655516 7.16796875 5.55859375 C7.45982342 8.35801606 7.50651428 10.55547418 7.29296875 13.30859375 C6.99933308 20.9128939 7.26798193 27.16146634 12.35546875 33.12109375 C14.57821997 36.11031091 14.8211924 37.96185755 14.61328125 41.62109375 C13.80355644 45.14410694 12.08165099 46.5748101 9.16796875 48.55859375 C4.88021509 49.33818532 2.88816249 48.97013303 -0.89453125 46.80859375 C-6.39486605 41.6779051 -10.44586522 32.85667462 -10.99316406 25.34790039 C-11.03862598 22.77216535 -11.0672367 20.19719518 -11.08203125 17.62109375 C-11.11296875 16.28014648 -11.11296875 16.28014648 -11.14453125 14.91210938 C-11.17396737 9.95580263 -11.07146039 6.57642941 -7.83203125 2.55859375 C-5.30409213 0.03065463 -3.4598896 0.20745953 0 0 Z " fill="#2B2B2B" transform="translate(60.83203125,99.44140625)"/>
</svg>
