<?xml version="1.0" standalone="no"?>
<!DOCTYPE svg PUBLIC "-//W3C//DTD SVG 20010904//EN"
 "http://www.w3.org/TR/2001/REC-SVG-20010904/DTD/svg10.dtd">
<svg version="1.0" xmlns="http://www.w3.org/2000/svg"
 width="206.000000pt" height="244.000000pt" viewBox="0 0 206.000000 244.000000"
 preserveAspectRatio="xMidYMid meet">

<g transform="translate(0.000000,244.000000) scale(0.100000,-0.100000)"
fill="#000000" stroke="none">
<path d="M922 2274 c-22 -15 -29 -48 -14 -71 11 -18 58 -26 81 -13 30 16 28
50 -4 50 -14 0 -25 -4 -25 -10 0 -5 7 -10 16 -10 8 0 12 -4 9 -10 -9 -15 -42
-12 -59 6 -25 24 -3 57 35 52 20 -3 29 0 29 9 0 18 -41 16 -68 -3z"/>
<path d="M1050 2241 l0 -49 45 -4 c25 -2 45 0 45 4 0 4 -16 8 -35 10 -41 3
-48 21 -10 26 32 4 33 22 0 22 -14 0 -25 5 -25 10 0 6 18 10 40 10 22 0 40 5
40 10 0 6 -22 10 -50 10 l-50 0 0 -49z"/>
<path d="M1190 2270 c0 -4 7 -11 16 -14 11 -4 13 -13 9 -28 -4 -13 -9 -31 -11
-40 -3 -10 -1 -18 4 -18 6 0 14 17 19 38 7 29 14 37 31 36 38 -1 24 12 -23 23
-25 6 -45 7 -45 3z"/>
<path d="M802 2263 c-30 -6 -36 -22 -23 -71 l11 -39 45 10 c56 13 60 30 5 21
-44 -7 -54 6 -17 24 22 10 22 11 -5 11 -31 1 -38 19 -10 27 9 3 26 9 37 14
l20 9 -20 -1 c-11 0 -30 -3 -43 -5z"/>
<path d="M700 2189 l0 -41 -31 27 c-17 14 -34 23 -38 19 -6 -6 67 -74 81 -74
4 0 8 25 8 55 0 30 -4 55 -10 55 -5 0 -10 -18 -10 -41z"/>
<path d="M1310 2191 l-45 -39 39 2 c33 1 42 -3 53 -24 7 -14 13 -20 14 -15 3
28 -3 101 -10 107 -3 4 -27 -10 -51 -31z m36 -18 c-10 -10 -19 5 -10 18 6 11
8 11 12 0 2 -7 1 -15 -2 -18z"/>
<path d="M1428 2138 c-27 -42 -30 -69 -4 -33 16 22 36 12 36 -20 0 -13 5 -27
10 -30 6 -3 10 3 10 14 0 12 6 21 14 21 7 0 19 7 26 15 10 12 7 20 -18 45 -17
16 -34 30 -39 30 -4 0 -20 -19 -35 -42z m74 -20 c-11 -11 -52 6 -52 21 0 17
14 19 37 4 15 -10 21 -19 15 -25z"/>
<path d="M506 2112 c-3 -5 3 -17 14 -27 30 -27 24 -33 -22 -24 -24 4 -47 4
-52 -1 -4 -4 8 -25 28 -47 19 -21 36 -33 36 -27 0 6 -9 19 -20 29 -31 28 -24
33 27 24 26 -5 50 -6 54 -2 4 5 -8 25 -26 46 -18 21 -36 34 -39 29z"/>
<path d="M1542 2063 c-33 -43 -38 -53 -23 -53 13 0 63 69 59 82 -2 6 -18 -7
-36 -29z"/>
<path d="M1603 2012 c-47 -19 -70 -38 -36 -30 29 8 54 -20 46 -51 -11 -41 13
-15 32 35 9 25 13 49 9 54 -5 4 -28 1 -51 -8z m31 -27 c-4 -8 -10 -12 -15 -9
-14 8 -10 24 6 24 9 0 12 -6 9 -15z"/>
<path d="M370 1970 c0 -14 39 -90 46 -90 3 0 3 8 0 18 -7 21 27 58 43 48 5 -4
12 -2 16 3 3 6 -11 15 -32 20 -48 14 -73 14 -73 1z m48 -21 c-2 -6 -8 -10 -13
-10 -5 0 -11 4 -13 10 -2 6 4 11 13 11 9 0 15 -5 13 -11z"/>
<path d="M1678 1914 c-21 -13 -38 -29 -38 -35 0 -6 13 -1 29 10 16 12 31 21
34 21 3 0 1 -17 -4 -37 -17 -73 -14 -77 31 -51 22 13 40 26 40 31 0 11 -8 9
-35 -9 -28 -18 -29 -15 -14 40 14 51 2 59 -43 30z"/>
<path d="M292 1862 c-24 -43 -23 -46 34 -75 l31 -16 21 45 c24 50 16 60 -11
14 -10 -16 -22 -30 -28 -30 -12 0 -12 27 1 35 6 3 10 12 10 18 -1 7 -9 2 -20
-11 -26 -31 -47 -19 -25 15 9 13 15 29 13 34 -2 6 -13 -7 -26 -29z"/>
<path d="M1483 1885 c-18 -7 -76 -23 -130 -35 -54 -12 -117 -32 -141 -46 -71
-42 -128 -153 -120 -235 l3 -34 33 52 c41 64 115 133 142 133 11 0 20 -2 20
-5 0 -3 -20 -30 -44 -59 -73 -90 -115 -178 -193 -400 -40 -116 -76 -218 -79
-226 -8 -20 -25 27 -80 228 -71 258 -129 377 -238 485 -49 49 -165 131 -174
123 -2 -3 19 -32 47 -66 114 -137 177 -251 241 -435 36 -107 130 -466 145
-557 6 -38 6 -38 55 -38 28 0 50 2 50 5 0 29 46 282 66 360 30 119 99 300 124
325 10 10 37 21 61 25 95 16 177 75 210 150 9 22 22 78 28 125 6 47 14 97 17
113 7 31 2 32 -43 12z"/>
<path d="M230 1736 c-14 -43 -10 -51 36 -66 37 -12 59 -6 34 10 -9 6 -15 25
-15 47 0 31 -4 39 -22 41 -16 2 -24 -4 -33 -32z m40 -11 c0 -16 -6 -25 -15
-25 -16 0 -19 9 -9 34 9 25 24 19 24 -9z"/>
<path d="M1793 1713 c-25 -13 -33 -23 -33 -43 0 -45 20 -63 63 -55 55 11 55
25 0 22 -45 -2 -48 0 -51 24 -3 22 2 27 29 35 18 5 34 15 37 22 5 16 -6 14
-45 -5z"/>
<path d="M200 1614 c-18 -21 -17 -72 3 -91 40 -41 104 26 79 82 -14 29 -61 35
-82 9z m56 -2 c31 -21 21 -82 -14 -82 -39 0 -55 45 -26 74 17 18 24 19 40 8z"/>
<path d="M1823 1563 c-24 -2 -43 -9 -43 -14 0 -6 15 -7 37 -3 l37 7 -38 -47
-38 -46 56 0 c34 0 56 4 56 11 0 7 -13 10 -34 7 l-34 -4 19 28 c11 15 24 30
29 33 12 7 13 36 3 33 -5 -1 -27 -3 -50 -5z"/>
<path d="M187 1473 c-4 -3 -7 -26 -7 -50 l0 -43 50 0 c28 0 50 5 50 10 0 6
-11 10 -25 10 -31 0 -33 22 -2 43 12 8 19 18 15 22 -4 4 -14 3 -22 -4 -11 -9
-15 -8 -20 4 -6 15 -28 20 -39 8z m33 -49 c0 -15 -6 -24 -15 -24 -15 0 -21 40
-9 53 12 11 24 -3 24 -29z"/>
<path d="M1790 1410 c0 -5 20 -10 45 -10 25 0 45 5 45 10 0 6 -20 10 -45 10
-25 0 -45 -4 -45 -10z"/>
<path d="M1786 1338 c-32 -45 -10 -98 40 -98 19 0 29 8 40 36 14 32 13 38 -1
60 -20 31 -59 31 -79 2z m62 -10 c19 -19 14 -56 -9 -68 -36 -20 -61 18 -43 64
7 19 35 21 52 4z"/>
<path d="M200 1309 c-11 -8 -4 -9 28 -5 38 6 44 4 51 -16 11 -27 -9 -48 -45
-48 -13 0 -26 -4 -29 -10 -7 -11 53 -14 79 -4 18 7 21 46 6 75 -12 21 -65 26
-90 8z"/>
<path d="M1750 1209 c0 -5 11 -15 25 -21 25 -11 34 -28 15 -28 -6 0 -27 -7
-48 -16 l-37 -16 38 -19 c21 -11 46 -18 55 -16 12 3 7 8 -17 19 -36 17 -35 19
22 37 49 16 47 33 -8 53 -25 10 -45 13 -45 7z"/>
<path d="M310 1174 c14 -35 13 -44 -5 -44 -8 0 -15 6 -15 14 0 8 -4 18 -10 21
-6 4 -7 -6 -4 -25 8 -40 -13 -40 -27 0 -6 17 -15 30 -20 30 -7 0 15 -71 26
-88 1 -1 23 6 49 17 l46 20 -15 37 c-8 20 -15 38 -15 40 0 2 -4 4 -10 4 -6 0
-6 -9 0 -26z"/>
<path d="M1683 1013 c-17 -6 -16 -30 1 -36 21 -8 40 17 24 30 -7 6 -19 8 -25
6z"/>
<path d="M352 993 c2 -10 10 -18 18 -18 8 0 16 8 18 18 2 12 -3 17 -18 17 -15
0 -20 -5 -18 -17z"/>
<path d="M462 878 c-31 -72 -17 -86 50 -52 34 17 47 29 40 36 -6 6 -20 4 -41
-7 l-32 -16 16 32 c14 27 15 34 3 45 -12 12 -17 7 -36 -38z"/>
<path d="M1557 913 c-4 -3 5 -22 19 -41 24 -31 25 -35 10 -50 -14 -15 -18 -14
-45 12 -43 41 -61 23 -20 -20 39 -40 52 -42 84 -9 32 31 31 46 -1 84 -26 32
-35 36 -47 24z"/>
<path d="M1084 865 c-18 -27 -13 -54 16 -80 34 -31 100 2 100 50 0 24 -23 55
-41 55 -5 0 0 -9 11 -20 11 -11 20 -27 20 -35 0 -16 -34 -55 -48 -55 -20 0
-52 34 -52 55 0 13 10 31 22 39 18 13 19 16 5 16 -9 0 -24 -11 -33 -25z"/>
<path d="M1121 828 c1 -18 3 -25 6 -15 4 14 8 16 19 6 11 -9 14 -7 14 15 0 19
-5 26 -20 26 -16 0 -20 -6 -19 -32z"/>
<path d="M1425 808 c-16 -10 -36 -22 -44 -27 -11 -7 -8 -17 14 -55 l27 -46 37
21 c45 28 56 37 49 44 -3 3 -19 -2 -36 -12 -36 -21 -56 -10 -23 13 16 11 19
20 12 27 -7 7 -15 6 -26 -3 -8 -7 -19 -10 -23 -6 -4 4 0 11 8 16 34 20 52 37
44 42 -5 3 -22 -3 -39 -14z"/>
<path d="M546 801 c-8 -12 42 -43 56 -35 7 4 2 13 -13 25 -27 21 -35 23 -43
10z"/>
<path d="M622 745 l-22 -45 40 -20 c21 -11 44 -20 50 -20 19 0 10 15 -20 32
-30 17 -30 18 -15 47 18 37 19 51 2 51 -7 0 -23 -20 -35 -45z"/>
<path d="M784 708 c-11 -13 -28 -34 -39 -46 l-20 -24 37 7 c29 6 40 3 57 -14
12 -12 24 -21 27 -21 12 0 -5 103 -18 112 -19 11 -23 10 -44 -14z m36 -28 c0
-11 -7 -20 -15 -20 -17 0 -18 2 -9 24 9 23 24 20 24 -4z"/>
<path d="M1190 699 c0 -5 5 -30 11 -55 8 -30 16 -43 25 -40 7 3 29 8 48 12 22
4 36 12 36 21 0 12 -7 13 -27 8 -15 -3 -32 -7 -37 -8 -6 -1 -15 15 -20 36 -8
33 -36 53 -36 26z"/>
<path d="M907 654 c-3 -27 -2 -53 2 -57 5 -5 28 -7 52 -5 39 3 44 6 45 28 0
14 4 31 8 39 12 19 -7 33 -57 38 l-44 5 -6 -48z m77 17 c7 -11 -14 -20 -31
-13 -7 2 -10 8 -7 13 7 12 31 12 38 0z m4 -48 c2 -8 -6 -13 -22 -13 -17 0 -26
5 -26 16 0 19 41 16 48 -3z"/>
<path d="M1063 693 c-14 -5 -17 -43 -7 -80 5 -19 13 -23 50 -23 23 0 46 5 49
10 4 6 -9 10 -30 10 -40 0 -45 23 -7 28 12 2 22 8 22 14 0 6 -11 8 -25 6 -17
-4 -25 -1 -25 8 0 9 12 14 35 14 19 0 35 5 35 10 0 10 -74 13 -97 3z"/>
<path d="M1342 676 c1 -10 8 -17 13 -17 15 1 12 24 -3 29 -9 3 -13 -2 -10 -12z"/>
<path d="M648 413 l-118 -4 0 -129 0 -130 125 0 125 0 0 33 0 32 -85 -3 -85
-3 0 25 c0 25 3 26 55 26 53 0 55 1 55 28 0 26 -1 27 -57 27 -51 0 -58 2 -58
20 0 18 7 20 88 20 l87 0 0 33 c0 17 -3 31 -7 30 -5 -1 -61 -4 -125 -5z"/>
<path d="M925 402 c-63 -30 -80 -55 -80 -119 0 -50 3 -57 36 -87 53 -49 140
-57 247 -25 31 10 32 12 32 70 l0 59 -80 0 c-79 0 -80 0 -80 -25 0 -22 4 -25
40 -25 32 0 40 -4 40 -19 0 -13 -9 -20 -35 -24 -104 -17 -174 65 -110 129 23
23 32 25 83 22 31 -2 64 -7 73 -11 11 -6 19 0 27 18 11 23 9 26 -16 36 -53 21
-134 21 -177 1z"/>
<path d="M1605 290 l0 -130 35 0 35 0 -3 82 -3 83 70 -70 c39 -38 74 -78 77
-87 4 -13 16 -18 42 -18 l37 0 0 135 0 135 -37 0 -38 0 0 -72 -1 -73 -59 64
c-32 36 -57 68 -54 73 3 4 -19 8 -48 8 l-53 0 0 -130z"/>
<path d="M218 280 l57 -130 42 0 c24 0 43 5 43 11 0 6 13 41 29 77 16 37 39
91 50 120 l21 52 -40 0 c-25 0 -40 -5 -40 -12 0 -7 -14 -42 -31 -78 -28 -61
-32 -64 -45 -46 -7 11 -24 46 -36 78 -23 58 -23 58 -65 58 l-41 0 56 -130z"/>
<path d="M1293 359 c-7 -28 -28 -87 -47 -130 l-34 -79 37 0 c32 0 38 4 48 30
10 28 15 30 63 30 46 0 53 -3 68 -30 14 -25 23 -30 55 -30 21 0 37 3 35 8 -1
4 -25 62 -52 130 l-50 122 -55 0 -56 0 -12 -51z m90 -48 c9 -27 17 -51 17 -55
0 -3 -18 -6 -40 -6 -25 0 -40 5 -40 12 0 18 32 98 39 98 3 0 14 -22 24 -49z"/>
</g>
</svg>
